<?xml version="1.0" standalone="no"?>
<!DOCTYPE svg PUBLIC "-//W3C//DTD SVG 20010904//EN"
 "http://www.w3.org/TR/2001/REC-SVG-20010904/DTD/svg10.dtd">
<svg version="1.0" xmlns="http://www.w3.org/2000/svg"
 width="70.000000pt" height="70.000000pt" viewBox="0 0 70.000000 70.000000"
 preserveAspectRatio="xMidYMid meet">
<metadata>
Created by potrace 1.14, written by Peter Selinger 2001-2017
</metadata>
<g transform="translate(0.000000,70.000000) scale(0.100000,-0.100000)"
fill="#000000" stroke="none">
<path d="M151 636 c-29 -16 -50 -52 -51 -87 0 -21 -6 -28 -30 -33 -17 -3 -33
-12 -36 -21 -9 -21 14 -45 43 -45 21 0 24 -4 21 -32 -2 -27 -8 -34 -30 -36
-28 -3 -41 -22 -32 -47 6 -14 23 -19 51 -16 8 1 13 -11 13 -34 0 -30 -3 -35
-24 -35 -28 0 -51 -24 -43 -44 3 -8 19 -17 36 -21 26 -6 31 -11 31 -36 0 -41
15 -66 50 -84 23 -12 70 -15 230 -15 213 0 247 6 270 49 6 12 10 112 10 253
-1 315 15 298 -282 298 -149 -1 -209 -4 -227 -14z m438 -61 c3 -4 8 -102 9
-219 3 -172 1 -214 -10 -224 -12 -9 -282 -20 -345 -13 -10 1 -13 54 -13 230
l0 230 23 3 c39 5 329 -1 336 -7z m-389 -25 c0 -23 -4 -30 -20 -30 -22 0 -23
3 -14 38 9 33 34 28 34 -8z m0 -133 c0 -25 -4 -33 -19 -34 -15 -1 -19 5 -19
33 0 27 4 34 19 34 15 0 19 -7 19 -33z m-3 -135 c3 -26 1 -32 -15 -32 -16 0
-20 7 -20 36 0 47 30 44 35 -4z m3 -138 c0 -32 -28 -31 -36 0 -3 14 -3 30 1
36 11 17 35 -8 35 -36z"/>
<path d="M373 460 c-46 -19 -55 -69 -19 -105 42 -42 106 -15 106 44 0 32 -8
45 -37 60 -25 13 -21 12 -50 1z"/>
<path d="M362 298 c-35 -9 -51 -33 -35 -49 23 -23 153 -13 153 11 0 27 -72 50
-118 38z"/>
</g>
</svg>
